PathFileType	4	(X/Y/Z)	c:\Git\powerlifing_model_clean\simulations\HC835B\Session1\HC835B_OGW_0004\marker_experimental.trc
DataRate	CameraRate	NumFrames	NumMarkers	Units	OrigDataRate	OrigDataStartFrame	OrigNumFrames
240.000000	240.000000	4	38	mm	240.000000	160	429
Frame#	Time	RPSI			LPSI			RASI			LASI			RTH1			RTH2			RTH3			RTH4			RSK1			RSK2			RSK3			RSK4			RCAL1			RCAL2			RCAL3			RST			RPT			RTN			RFMB			RSMB			RVMB			RFMH			RSMH			RVMH			RPM			LTH1			LTH2			LTH3			LTH4			LSK1			LSK2			LSK3			LSK4			LCAL1			LCAL2			LCAL3			LFMH			LVMH			
		X1	Y1	Z1	X2	Y2	Z2	X3	Y3	Z3	X4	Y4	Z4	X5	Y5	Z5	X6	Y6	Z6	X7	Y7	Z7	X8	Y8	Z8	X9	Y9	Z9	X10	Y10	Z10	X11	Y11	Z11	X12	Y12	Z12	X13	Y13	Z13	X14	Y14	Z14	X15	Y15	Z15	X16	Y16	Z16	X17	Y17	Z17	X18	Y18	Z18	X19	Y19	Z19	X20	Y20	Z20	X21	Y21	Z21	X22	Y22	Z22	X23	Y23	Z23	X24	Y24	Z24	X25	Y25	Z25	X26	Y26	Z26	X27	Y27	Z27	X28	Y28	Z28	X29	Y29	Z29	X30	Y30	Z30	X31	Y31	Z31	X32	Y32	Z32	X33	Y33	Z33	X34	Y34	Z34	X35	Y35	Z35	X36	Y36	Z36	X37	Y37	Z37	X38	Y38	Z38	

161	0.6666666666666666	487.563446044922	1087.135009765625	-1531.7587890625	594.4288940429689	1081.42626953125	-1524.591064453125	401.7950744628907	1042.401733398438	-1332.682983398438	644.5788574218751	1040.887451171875	-1308.443603515625	343.7396240234376	780.2102661132815	-1468.175903320313	348.3160095214844	757.0366210937501	-1412.185424804688	350.1746520996094	696.3181152343751	-1460.852294921875	366.4934997558594	673.6983032226564	-1409.339721679688	423.4963684082032	356.2241516113282	-1749.62548828125	408.3074035644532	306.9531860351563	-1715.036499023438	427.9809875488282	302.2330017089844	-1773.20703125	424.4404296875001	254.3804016113282	-1736.457275390625	503.7934570312501	219.962387084961	-1897.352783203125	541.1968994140626	189.4316558837891	-1906.402587890625	480.1468200683595	187.7537841796875	-1925.128662109375	538.4374389648439	156.2277984619141	-1842.921508789063	443.575408935547	155.5857391357422	-1882.24658203125	510.9106750488282	133.2921905517578	-1795.808959960938	507.4920043945314	98.64036560058597	-1786.426879882813	454.2694702148439	104.4630813598633	-1777.187866210938	433.2943725585939	104.1937942504883	-1870.87109375	514.8102416992189	43.35775375366212	-1770.224487304688	455.2300415039064	48.15940475463869	-1758.718383789063	402.7837524414064	43.7427101135254	-1831.348999023438	460.3859863281251	29.46523094177247	-1719.178344726563	712.7274780273439	770.619567871094	-1306.089477539063	711.7319946289064	783.1622314453127	-1245.89208984375	703.0213623046876	702.7743530273439	-1254.485595703125	685.0192260742189	716.6431274414064	-1197.864868164063	659.4937133789064	270.0701599121094	-1179.855224609375	660.7328491210939	264.0393066406251	-1126.706298828125	655.0120239257814	221.1440429687501	-1151.96728515625	640.4394531250001	218.5827789306641	-1096.530395507813	589.9019165039064	82.61685180664064	-1181.718017578125	619.2648925781251	44.75006103515626	-1178.390869140625	561.0765380859376	44.40797805786134	-1173.781005859375	563.2160034179689	75.39511871337892	-952.6751708984377	665.5597534179689	37.49232482910157	-989.0828857421877	
162	0.6708333333333333	487.6980590820314	1087.115966796875	-1524.25830078125	594.7497558593751	1081.848266601563	-1517.170776367188	402.3746643066407	1042.618408203125	-1325.1162109375	645.2921752929689	1041.742431640625	-1300.81201171875	343.0684509277344	779.7104492187502	-1458.1748046875	347.7109680175782	757.0739135742189	-1401.911254882813	349.2510070800782	695.7561035156251	-1450.049926757813	365.1977844238282	673.5995483398439	-1398.192993164063	422.2485961914064	358.7179870605469	-1739.036254882813	407.0924377441407	309.1386413574219	-1705.425659179688	426.5376281738282	305.0815734863282	-1763.467529296875	423.0425109863282	256.9357910156251	-1727.616455078125	502.4461669921876	226.7642211914063	-1887.425537109375	540.1123046875001	197.0343475341797	-1897.688720703125	479.0473632812501	195.4635162353516	-1916.675659179688	537.4584960937501	161.2174835205078	-1835.56787109375	443.3448181152345	161.2324981689453	-1875.432495117188	509.8436584472657	136.1279449462891	-1789.59912109375	506.6697082519532	101.0547256469727	-1781.574096679688	453.3704833984376	106.1391143798828	-1772.200927734375	432.7482299804689	109.3905487060547	-1866.002563476563	514.4133911132814	45.10566329956055	-1767.634643554688	454.6752319335939	48.9401092529297	-1756.130126953125	402.855682373047	47.17660140991212	-1828.709838867188	460.3374938964845	28.93079376220704	-1718.172729492188	713.8244018554689	771.7783203125002	-1297.98828125	712.6109619140626	784.252136230469	-1237.838500976563	703.7908325195314	703.7801513671876	-1246.421020507813	685.2997436523439	717.8095703125001	-1190.029296875	660.5960693359376	270.2865295410157	-1175.47998046875	660.9694824218751	263.6900634765626	-1122.380859375	655.5147705078126	221.079086303711	-1148.1611328125	640.0247802734376	217.9238433837891	-1093.075927734375	589.9269409179689	82.89352416992189	-1180.912841796875	619.3034667968751	45.09972381591798	-1177.859619140625	561.1364746093751	44.58552551269532	-1173.372680664063	562.3762207031251	73.52878570556642	-951.950866699219	665.2318725585939	37.13999176025391	-988.299499511719	
163	0.675	487.8311462402345	1087.171997070313	-1516.904174804688	595.0579833984376	1082.41650390625	-1509.810424804688	403.2411499023439	1042.8984375	-1317.615966796875	645.9411621093751	1042.6982421875	-1293.310546875	342.9666442871094	778.8338623046877	-1448.277587890625	347.1329040527344	756.9508666992189	-1391.645874023438	348.2303466796876	695.1773071289064	-1439.035888671875	363.9244995117188	673.3354492187501	-1387.067260742188	420.9603576660157	361.2094726562501	-1728.1728515625	405.3858032226564	310.9833374023438	-1695.37451171875	425.4558715820314	307.9017944335938	-1753.319091796875	421.3987121582032	259.2482910156251	-1718.420288085938	500.9498901367189	233.6736297607422	-1877.033447265625	539.0391235351564	204.7748107910157	-1888.274047851563	477.980194091797	203.6417541503907	-1907.673950195313	536.5352172851564	166.2807006835938	-1827.918823242188	442.3044433593751	167.3630523681641	-1867.937133789063	508.7898559570314	139.205078125	-1783.04833984375	505.8618164062501	103.8095092773438	-1776.367431640625	452.4927673339845	108.138671875	-1766.967163085938	432.1837768554689	115.322982788086	-1860.604614257813	514.0312500000001	47.28391265869141	-1764.599609375	454.2208251953126	50.11752700805665	-1753.459716796875	403.0178833007814	51.14265441894533	-1825.744506835938	460.0128479003907	28.10416412353516	-1717.440551757813	714.8023681640626	772.8674316406252	-1290.01416015625	713.6545410156251	785.4138183593752	-1229.877075195313	704.5756835937501	705.0589599609376	-1238.466674804688	685.8401489257814	719.1158447265626	-1182.111572265625	661.4231567382814	270.4880371093751	-1171.51025390625	661.2906494140626	263.7474975585938	-1118.322631835938	655.7927246093751	220.9859924316407	-1144.791137695313	639.4326782226564	217.2704772949219	-1090.035522460938	589.8130493164064	83.10100555419923	-1180.426513671875	619.2911987304689	45.36153411865235	-1177.575927734375	561.0769653320314	44.61090087890626	-1173.168579101563	560.6083374023439	71.38013458251955	-951.8101196289065	664.8315429687501	37.4537467956543	-987.932067871094	
164	0.6791666666666667	487.9435424804689	1087.221557617188	-1509.581787109375	595.3780517578126	1083.0966796875	-1502.517578125	404.2034606933595	1043.430786132813	-1309.942749023438	646.6656494140626	1043.692626953125	-1285.806274414063	342.2468566894532	778.2100830078127	-1438.141845703125	346.3983154296876	756.8416748046876	-1381.32861328125	347.9857788085938	694.2983398437501	-1428.277587890625	362.2986145019532	673.2472534179689	-1375.564819335938	419.669158935547	363.8191528320313	-1717.032958984375	403.8731994628907	313.2053833007813	-1685.0087890625	424.055877685547	311.0534362792969	-1742.967407226563	419.8942260742189	261.7681579589844	-1708.8984375	499.4813232421876	240.7268371582032	-1866.173095703125	537.8258666992189	212.6583404541016	-1878.603515625	476.8594360351564	211.801986694336	-1898.227905273438	535.5972900390626	171.6140747070313	-1819.87353515625	441.7457885742189	173.3627166748047	-1860.325073242188	507.6795654296876	142.48681640625	-1776.25244140625	505.005584716797	106.8328018188477	-1770.882934570313	451.4121704101564	110.7178955078125	-1761.29931640625	431.5152893066407	121.1659240722657	-1854.86669921875	513.4650878906251	49.75606918334962	-1761.430541992188	453.6088867187501	51.36803817749025	-1750.568603515625	402.9951477050782	55.42055892944337	-1822.4150390625	459.8149414062501	27.57105827331544	-1716.055053710938	715.6150512695314	774.2086181640627	-1282.186889648438	714.5701293945314	786.7937011718752	-1222.082641601563	705.5234985351564	706.4458007812501	-1230.609985351563	686.6694946289064	720.5589599609376	-1174.28515625	662.0164794921876	270.8094177246094	-1167.989501953125	661.1226806640626	263.4518432617188	-1114.819946289063	655.8536987304689	221.0571899414063	-1141.976440429688	638.7880859375001	216.6920318603516	-1087.45166015625	589.6320190429689	83.3315887451172	-1180.301025390625	619.2142333984376	45.56721496582032	-1177.357055664063	560.9716186523439	44.59935379028321	-1173.094482421875	559.2158203125001	69.65594482421876	-951.7835083007815	664.1675415039064	37.45807266235352	-987.4476318359377	
